<?xml version="1.0"?>
<svg xmlns="http://www.w3.org/2000/svg" height="512px" viewBox="0 0 512 512" width="512px"><path d="m504.328125 0c-3.304687 0-480.691406 0-496.652344 0-4.234375 0-7.6679685 3.433594-7.6679685 7.667969 0 8.585937-.0078125 477.535156-.0078125 496.664062 0 4.234375 3.433594 7.667969 7.667969 7.667969h496.652343c4.234376 0 7.667969-3.433594 7.667969-7.667969 0-8.585937.007813-477.535156.007813-496.664062 0-4.234375-3.429688-7.667969-7.667969-7.667969zm-176.421875 15.335938h29.59375v113.019531h-29.59375zm-44.933594 0h29.597656v113.019531h-29.597656zm-44.929687 0h29.59375v113.019531h-29.59375zm-44.933594 0h29.59375v113.019531h-29.59375zm-49.292969 0h33.957032v113.019531h-33.957032zm-128.472656 0h113.136719v26.675781h-113.136719zm0 42.011718h113.136719v29.597656h-113.136719zm0 44.933594h113.136719v26.074219h-113.136719zm0 41.414062h113.136719v29.992188h-113.136719zm0 45.328126h113.136719v34.425781h-113.136719zm0 49.765624h113.136719v34.421876h-113.136719zm0 49.761719h113.136719v34.425781h-113.136719zm0 49.761719h113.136719v29.84375h-113.136719zm78.882812 158.351562h-29.59375v-66.453124c0-4.234376-3.433593-7.667969-7.671874-7.667969-4.234376 0-7.667969 3.433593-7.667969 7.667969v66.453124h-33.957031v-113.136718h33.957031v16.011718c0 4.234376 3.433593 7.667969 7.667969 7.667969 4.234374 0 7.667968-3.433593 7.667968-7.667969v-16.011718h29.597656zm44.933594 0h-29.597656v-113.136718h29.597656zm44.929688 0h-29.59375v-113.136718h29.59375zm44.933594 0h-29.59375v-113.136718h29.59375zm44.933593 0h-29.597656v-113.136718h29.597656zm44.933594 0h-29.597656v-113.136718h29.597656zm49.289063 0h-33.953126v-113.136718h33.953126zm0-128.507812h-224.363282v-29.84375h224.363282zm0-45.179688h-224.363282v-34.425781h224.363282zm0-99.527343h-51.210938c-4.234375 0-7.667969 3.433593-7.667969 7.667969 0 4.238281 3.433594 7.671874 7.667969 7.671874h51.210938v34.421876h-224.363282v-34.421876h142.476563c4.234375 0 7.667969-3.433593 7.667969-7.671874 0-4.234376-3.433594-7.667969-7.667969-7.667969h-142.476563v-34.425781h224.363282zm0-49.761719h-224.363282v-29.878906h224.363282zm4.660156-158.351562h29.59375v113.019531h-29.59375zm123.8125 481.328124h-113.132813v-24.753906h113.132813zm0-40.09375h-113.132813v-29.59375h113.132813zm0-44.929687h-113.132813v-28.144531h113.132813zm0-43.484375h-113.136719v-29.84375h113.136719zm0-45.179688h-113.136719v-34.425781h113.136719zm0-49.765624h-113.136719v-34.421876h113.136719zm0-49.761719h-113.136719v-34.425781h113.136719zm0-49.761719h-113.136719v-29.871094h113.136719zm.007812-45.332031h-33.953125v-17.207031c0-4.238282-3.433593-7.667969-7.671875-7.667969-4.234375 0-7.667968 3.429687-7.667968 7.667969v17.207031h-29.59375v-113.019531h29.59375v65.136718c0 4.238282 3.433593 7.667969 7.667968 7.667969 4.238282 0 7.671875-3.429687 7.671875-7.667969v-65.136718h33.953125zm0 0" fill="#FFFFFF"/></svg>
