<?xml version="1.0" encoding="UTF-8"?>
<svg width="414px" height="117px" viewBox="0 0 414 117" version="1.1" xmlns="http://www.w3.org/2000/svg" xmlns:xlink="http://www.w3.org/1999/xlink">
    <!-- Generator: Sketch 52.2 (67145) - http://www.bohemiancoding.com/sketch -->
    <title>Group 5</title>
    <desc>Created with Sketch.</desc>
    <g id="Page-1" stroke="none" stroke-width="1" fill="none" fill-rule="evenodd">
        <g id="Letter" transform="translate(-707.000000, -527.000000)">
            <g id="Group-5" transform="translate(707.000000, 527.000000)">
                <g id="Group-4">
                    <path d="M42.9394531,23.2592773 C34.2890625,26.2280273 29.5221354,29.1489258 28.6386719,32.0219727 C27.3134766,36.331543 28.4111328,39.309082 25.3085937,41.8793945 C23.2402344,43.5929362 19.8040365,46.8068034 15,51.5209961 L18.1152344,59.1577148 L23.1044922,68.8129883 C24.5152995,75.6541341 25.7903646,79.5802409 26.9296875,80.5913086 C31.4166667,77.6857096 33.6601562,76.2329102 33.6601562,76.2329102 C35.4746094,77.1730143 36.3818359,77.6430664 36.3818359,77.6430664 C36.1910807,80.9321289 36.0957031,82.5766602 36.0957031,82.5766602 C37.2942708,86.5226237 37.8935547,88.4956055 37.8935547,88.4956055 C38.9710286,89.4135742 39.5097656,89.8725586 39.5097656,89.8725586 C43.3242188,87.1258138 45.2314453,85.7524414 45.2314453,85.7524414 C49.0042318,85.1931966 50.890625,84.9135742 50.890625,84.9135742 C62.3183594,73.4539388 68.0322266,67.7241211 68.0322266,67.7241211 C70.836263,57.409668 72.3964844,51.9060872 72.7128906,51.2133789 C73.0292969,50.5206706 73.0292969,45.3956706 72.7128906,35.8383789 L59.8745117,23 L42.9394531,23.2592773 Z" id="Path-9" fill="#FFFFFF"></path>
                    <path d="M31.0810464,67.3389446 C31.1321969,68.1388666 31.344751,69.0848107 31.7187088,70.1767771 C29.8830198,70.1567254 27.7279659,70.0350313 25.253547,69.8116949 C25.3333231,71.3090281 25.4687858,72.8880102 25.6599351,74.5486412 C25.8510844,76.2092722 26.6517179,77.5443561 28.0618357,78.5538929 C28.2161174,77.5053297 31.8735991,76.0077959 34.5183165,75.0721442 C35.6750038,75.9216055 37.3311433,76.4307665 39.4867348,76.5996272 C39.3710734,76.8595281 39.2574751,77.1221175 39.1459426,77.3873956 C38.3043242,77.0625042 37.1726332,76.9549553 35.6509427,77.2287228 C31.3027089,78.0110139 28.9469104,80.2351725 28.5835471,83.9011984 C24.4667481,80.8270529 22.3724999,76.0032728 22.3008026,69.4298578 C19.4132706,67.7343273 17.6738848,64.481141 17.0826452,59.6702988 C13.1597849,57.9689528 11.916877,52.3356333 12.0042581,51.6808925 C12.0625122,51.2443986 12.3288073,50.8963143 12.8031433,50.6366397 C16.0249774,48.7073105 21.9560226,43.359411 24.1172235,41.1577959 C26.2784243,38.9561809 26.1275831,39.0122455 26.2295937,34.6486135 C26.2976007,31.7395255 30.1410536,28.2666547 37.7599521,24.2300011 C34.2009164,18.8179996 34.3556456,14.6158965 38.2241398,11.6236917 C38.7328747,16.3869639 40.014465,18.9905062 42.0689106,19.4343185 C39.055721,11.9863103 42.0411489,6.51423678 51.0251941,3.01809797 C65.614465,0.908895824 74.2776016,2.07693257 77.0146038,6.52220822 C80.4149489,12.0448456 62.3847304,22.4266198 54.8496158,29.4499758 C54.290803,28.9572431 53.624729,28.6969549 52.9705493,28.562592 C51.9295173,28.3487729 50.314381,28.8804383 48.1251405,30.1575882 C48.2574038,29.4200957 48.743048,28.4700943 49.582073,27.3075839 C45.5563816,26.7818143 41.7275091,27.4422035 38.0954555,29.2887515 C38.5101082,28.1337091 39.5544238,26.5531248 41.2284022,24.5469985 C36.8321896,25.9372157 30.9461428,31.6020462 29.7329189,32.8261999 C28.5196951,34.0503536 28.7874397,38.5342659 28.7815292,39.2279989 C28.7756187,39.9217318 28.6934631,40.34937 27.9436206,41.0806392 C27.4437256,41.568152 24.5950728,44.0511787 19.3976623,48.5297194 C19.7976045,48.5645698 20.4601033,48.6613255 21.3851586,48.8199867 C22.7727415,49.0579783 22.9999008,50.834367 23.039698,51.9172192 C23.0794952,53.0000715 22.3471872,54.8878898 22.0790486,54.2254043 C21.9002895,53.7837473 21.1950382,53.6434285 19.9632949,53.804448 C19.9406381,54.9040048 20.0334326,55.8514514 20.6193578,56.7965397 C21.0099747,57.4265986 21.0099747,57.9253133 20.6193578,58.2926838 C19.7988523,58.5255004 20.1530212,60.2117496 21.6818645,63.3514316 C22.9061064,65.8655743 26.0391671,67.1947453 31.0810464,67.3389446 Z" id="Lion-2" fill="#4D4D4D"></path>
                    <path d="M31,42.7286998 C32.768861,38.7592339 33.7365125,36.1830006 33.9029544,35 C34.178628,36.0970938 34.2374348,37.0081209 34.0793748,37.7330813 C36.0258537,37.2903307 38.9957974,36.4416281 42.9892057,35.1869737 C40.5682809,38.5098708 39.2496512,40.3639295 39.0333166,40.7491498 C35.9901306,40.6970615 34.1775636,40.6932391 33.5956156,40.7376826 C33.0136677,40.7821261 32.1484625,41.4457985 31,42.7286998 Z" id="Mask" fill="#666666"></path>
                    <path d="M-2.13162821e-14,31.2963085 C7.72574141,19.784018 18.5173867,11.1775544 32.374936,5.4769178 C46.2324852,-0.223718793 61.0173757,-1.47423507 76.7296076,1.72536897 C91.1680594,5.4910568 103.456909,12.5726027 113.596156,22.9700067 C101.143287,24.8567781 92.9283782,27.8783354 88.9514298,32.0346787 C99.8723982,27.8233504 110.462173,28.0694738 120.720755,32.7730488 C120.463686,41.0019486 119.750043,46.9479231 118.579827,50.6109723 C110.001394,46.0985356 101.866655,44.1693472 94.1756102,44.823407 C103.514736,46.8819411 111.179759,51.4297253 117.170678,58.4667595 C114.318736,67.1795274 111.727279,73.9432076 109.396309,78.7578 C104.395816,71.3955687 98.4177761,66.5553166 91.4621906,64.2370438 C98.1864665,69.0013641 102.85235,76.1913091 105.45984,85.8068785 C98.9600395,94.0823847 94.057064,99.5392544 90.7509135,102.177488 C89.2116531,91.9408494 86.194114,84.1534006 81.698296,78.8151415 C85.1674147,86.8110096 85.6408108,96.3475053 83.1184845,107.424629 C77.2905334,111.045785 70.0345083,114.041682 61.350409,116.412322 C60.6007556,116.68777 59.0607066,116.555021 56.7302622,116.014073 C53.2345955,115.202651 33.554615,109.150373 20.8391571,93.3578917 C8.1236991,77.5654107 2.77413837,62.1648943 1.45488496,50.6109723 C0.575382687,42.9083576 0.0904210345,36.4701363 -2.13162821e-14,31.2963085 Z M7.77067024,34.0713993 C7.72914985,39.1939273 8.5423452,45.9675386 10.2102563,54.3922332 C12.712123,67.029275 20.1641143,79.7902363 25.6911229,87.5767716 C29.3757953,92.7677952 34.9831511,97.3715738 42.5131903,101.388107 C43.4637577,99.974994 45.6045546,99.1544196 49.3963785,96.4093678 C51.9242611,94.5793333 53.1727636,92.8591009 53.1418861,91.2486705 C53.1418861,91.2486705 53.7826273,85.4152395 47.2802179,86.5889452 C42.9452783,87.3714156 40.5966823,89.596084 40.23443,93.2629503 C36.1302177,90.1881002 34.0423725,85.3632142 33.9708943,78.7882924 C31.0921906,77.0923733 29.3581228,73.8384412 28.7686909,69.0264962 C24.8578243,67.3247602 23.6187164,61.6901493 23.7058304,61.0352584 C23.7639064,60.5986644 24.0293873,60.2505004 24.5022731,59.9907662 C27.7142568,58.0609948 33.6271685,52.7118693 35.7817617,50.5097496 C37.9363549,48.3076299 37.7859749,48.3637074 37.8876736,43.9990751 C37.9554727,41.0893202 41.7871746,37.6156533 49.3827792,33.5780743 C45.8346249,28.1648323 45.988881,23.9617659 49.8455477,20.9688752 C50.3527272,25.7332393 51.6303992,28.3373784 53.6785635,28.7812925 C49.6311132,18.7438146 56.4401954,12.2942502 74.1058101,9.4325991 C64.4583621,7.53145468 54.7977747,7.55995094 45.124048,9.51808785 C27.0647779,14.7640125 14.613652,22.9484496 7.77067024,34.0713993 Z M31.07663,57.8833629 C31.4753495,57.9182213 32.1358228,58.0149993 33.0580498,58.1736968 C34.4413903,58.411743 34.6678551,60.1885389 34.7075307,61.2716393 C34.7472062,62.3547398 34.0171371,64.2429909 33.7498183,63.5803535 C33.5716057,63.1385953 32.8685107,62.9982443 31.6405333,63.1593007 C31.6179457,64.2591096 31.7104565,65.2067734 32.2945904,66.1520783 C32.6840129,66.7822816 32.6840129,67.2811106 32.2945904,67.6485654 C31.4765935,67.8814353 31.8296795,69.5680711 33.3538486,72.7084728 C34.8780176,75.8488744 39.3699298,77.1408633 46.829585,76.5844392 C48.664873,76.5654375 49.6536843,75.1749671 49.7960186,72.4130281 C49.8254806,71.0974509 49.0368148,69.7542884 47.4300211,68.3835405 C49.8698701,68.4388422 51.7712186,69.4560917 53.1340667,71.4352891 C53.6315167,69.4165156 52.5693123,67.1142883 49.9474534,64.528607 C52.6345216,64.9567364 55.3001806,66.1520783 57.9444306,68.1146328 C63.3486836,64.8105539 66.1923588,61.0468288 66.4754562,56.8234577 C63.8128743,58.2316849 60.5431126,58.5849866 56.6661713,57.8833629 C68.4478409,53.7618806 67.8804022,45.6814792 67.8041938,42.4762094 C67.7279853,39.2709397 66.1036454,38.2324606 64.5468717,37.9116584 C63.5090225,37.6977903 61.8988244,38.2295776 59.7162771,39.5070202 C59.8481361,38.7693587 60.3322955,37.8191395 61.1687552,36.6563626 C57.155372,36.1304725 53.3382058,36.7910131 49.7172568,38.6379844 C50.1306418,37.4826772 51.1717645,35.9017306 52.8406248,33.8951444 C48.4578532,35.2856803 42.5898023,40.9518094 41.3802878,42.1762437 C40.1707732,43.400678 40.4376992,47.8856182 40.4318068,48.5795101 C40.4259144,49.2734021 40.34401,49.7011383 39.59646,50.4325752 C39.0980934,50.9201997 36.2581501,53.4037956 31.07663,57.8833629 Z M36.7540913,79.2642432 C36.8336235,80.7619196 36.968672,82.3412637 37.1592369,84.0022753 C37.3498018,85.663287 38.1479875,86.9986769 39.5537939,88.0084451 C39.7285435,86.8168583 44.411441,85.045602 46.9998822,84.177474 C48.7255096,83.598722 49.6928477,81.8033455 49.9018963,78.7913444 C47.9432695,79.7229844 43.5606678,79.8806173 36.7540913,79.2642432 Z" id="Combined-Shape" fill="#666666"></path>
                    <path d="M44,50.7304715 C45.7634529,46.7600956 46.7281459,44.1832718 46.8940789,43 C47.1689097,44.0973453 47.2275367,45.0085812 47.06996,45.7337078 C49.0104877,45.2908557 51.9713511,44.4419586 55.95255,43.1870166 C53.5390269,46.5106754 52.2244288,48.3651591 52.0087556,48.7504677 C48.9748738,48.6983674 47.1678485,48.6945442 46.5876798,48.7389979 C46.0075111,48.7834516 45.1449512,49.4472761 44,50.7304715 Z" id="Path-4" fill="#666666"></path>
                </g>
                <text id="Two-Lions" fill="#666666" font-family="Cinzel-Bold, Cinzel" font-size="48" font-weight="bold">
                    <tspan x="143.44" y="68">Two Lions</tspan>
                </text>
                <text id="CONTRACTORS,-INC." fill="#666666" font-family="Quattrocento-Bold, Quattrocento" font-size="26" font-weight="bold" letter-spacing="1.083333">
                    <tspan x="143" y="99">CONTRACTORS, INC.</tspan>
                </text>
            </g>
        </g>
    </g>
</svg>