<?xml version="1.0" encoding="UTF-8"?>
<svg width="200px" height="200px" viewBox="0 0 200 200" version="1.1" xmlns="http://www.w3.org/2000/svg" xmlns:xlink="http://www.w3.org/1999/xlink">
    <!-- Generator: Sketch 52.2 (67145) - http://www.bohemiancoding.com/sketch -->
    <title>Group 2</title>
    <desc>Created with Sketch.</desc>
    <g id="Page-1" stroke="none" stroke-width="1" fill="none" fill-rule="evenodd">
        <g id="Letter" transform="translate(-637.000000, -311.000000)">
            <g id="Group-2" transform="translate(637.000000, 311.000000)">
                <path d="M50.4862881,114.951373 C50.5708344,116.318761 50.9221635,117.93576 51.5402756,119.802369 C48.5060789,119.768092 44.9440063,119.560068 40.8540577,119.178297 C40.9859191,121.737841 41.2098243,124.436955 41.5257736,127.275641 C41.8417228,130.114326 43.165084,132.396521 45.4958572,134.122225 C45.7508682,132.329809 51.7962926,129.769922 56.1677262,128.170518 C58.0796062,129.622588 60.8170267,130.492949 64.379988,130.7816 C64.188812,131.225875 64.0010463,131.674746 63.816695,132.128213 C62.4255903,131.572843 60.5550266,131.388998 58.0398358,131.856977 C50.8526724,133.194227 46.9587905,136.996207 46.3581901,143.262918 C39.5535636,138.007969 36.0919964,129.762191 35.9734884,118.525584 C31.2007082,115.627241 28.3256904,110.066239 27.3484349,101.842577 C20.8643683,98.9342932 18.809975,89.3046872 18.9544066,88.1854721 C19.0506944,87.4393287 19.4908515,86.8443128 20.274878,86.4004245 C25.6002236,83.1024261 35.4036042,73.9607174 38.975837,70.1972729 C42.5480698,66.4338283 42.2987455,66.5296653 42.467358,59.0704653 C42.5797663,54.0976653 48.9325809,48.161134 61.5258017,41.2608714 C55.643098,32.0095869 55.8988488,24.8265046 62.293054,19.7116246 C63.1339382,27.8539703 65.2522692,32.3044699 68.6480471,33.0631235 C63.6675684,20.3314855 68.6021599,10.9775136 83.4518215,5.00120798 C107.566319,1.39573422 121.885553,3.39237824 126.409524,10.99114 C132.029929,20.4315458 102.227915,38.1781684 89.7731796,50.1839051 C88.8495222,49.341627 87.7485733,48.8966899 86.6672846,48.6670097 C84.9465706,48.301507 82.2769239,49.2103367 78.6583444,51.3934989 C78.8769615,50.132828 79.6796791,48.5088939 81.0664973,46.5216968 C74.412462,45.6229452 68.0837471,46.7518157 62.0803526,49.9083081 C62.7657291,47.9338766 64.4918706,45.232023 67.258777,41.8027473 C59.9923098,44.179187 50.2633069,53.862658 48.2579782,55.9552284 C46.2526495,58.0477987 46.6952026,65.7126062 46.6854332,66.8984744 C46.6756638,68.0843427 46.5398694,68.8153482 45.3004603,70.065381 C44.4741876,70.8987362 39.7656706,75.1432263 31.1749094,82.7988514 C31.8359709,82.8584248 32.9310102,83.0238192 34.4600272,83.2950348 C36.7535527,83.7018582 37.1290227,86.73842 37.1948032,88.5894495 C37.2605837,90.440479 36.0501571,93.6675188 35.6069528,92.535065 C35.3114832,91.7800958 34.1457787,91.5402346 32.1098393,91.8154814 C32.07239,93.6950658 32.2257693,95.3146327 33.1942408,96.9301682 C33.8398885,98.0071919 33.8398885,98.8596957 33.1942408,99.4876796 C31.8380334,99.8856565 32.4234365,102.768134 34.9504503,108.135112 C36.9739906,112.432791 42.1526033,114.704879 50.4862881,114.951373 Z" id="Lion-2" fill="#999999"></path>
                <path d="M51.5789474,71.9071049 C54.5026846,65.121693 56.1021085,60.7178755 56.3772191,58.6956522 C56.8328779,60.5710262 56.9300792,62.1283374 56.6688231,63.367586 C59.8861436,62.6107473 64.7951413,61.1599738 71.3958163,59.0152653 C67.3942877,64.6954314 65.2147345,67.8647625 64.8571567,68.5232587 C59.8270971,68.4342188 56.8311186,68.4276848 55.8692211,68.5036566 C54.9073237,68.5796284 53.4772324,69.7141112 51.5789474,71.9071049 Z" id="Mask" fill="#999999"></path>
                <path d="M0,53.4979632 C12.7698205,33.8188341 30.6072508,19.1069306 53.5122909,9.36225265 C76.4173309,-0.382425287 100.855167,-2.52005995 126.825798,2.94934867 C150.691007,9.38642188 171.003155,21.4916285 187.762241,39.2649686 C167.178987,42.4902189 153.600625,47.6552742 147.027157,54.7601345 C165.078344,47.5612827 182.582105,47.9820065 199.538438,56.0223057 C199.113531,70.0888011 197.933956,80.25286 195.999714,86.5144825 C181.820486,78.8009155 168.374637,75.5031575 155.662166,76.6212085 C171.098738,80.1400702 183.768196,87.9140603 193.670542,99.9431786 C188.956588,114.836799 184.673189,126.398645 180.820346,134.628718 C172.555067,122.043707 162.67401,113.769772 151.177175,109.806912 C162.29168,117.95105 170.003884,130.241554 174.313785,146.678425 C163.570313,160.824589 155.466222,170.152572 150.00151,174.662372 C147.457278,157.163845 142.46961,143.851967 135.038506,134.726738 C140.772586,148.394888 141.555059,164.69659 137.385925,183.631844 C127.752948,189.821854 115.759518,194.943047 101.405635,198.995422 C100.166538,199.466274 97.6210027,199.239352 93.7690284,198.314655 C87.9910669,196.927609 55.4621736,186.581834 34.4448877,159.58614 C13.4276018,132.590446 4.58535267,106.264777 2.40476853,86.5144825 C0.951045764,73.3476197 0.149456255,62.3421133 0,53.4979632 Z M12.844083,58.2417083 C12.7754543,66.9981664 14.1195788,78.5769891 16.8764567,92.9781763 C21.0117735,114.579957 33.3291146,136.393566 42.4646659,149.703883 C48.5550335,158.577428 57.8233902,166.447135 70.269736,173.313004 C71.8409218,170.897426 75.379429,169.494734 81.6469066,164.802338 C85.8252249,161.674074 87.8888655,158.733506 87.8378283,155.980633 C87.8378283,155.980633 88.8969046,146.008956 78.1491205,148.015291 C70.9839311,149.352847 67.1019543,153.155699 66.5031901,159.423847 C59.7193681,154.167693 56.2683842,145.920024 56.1502385,134.680842 C51.3920506,131.781835 48.5258228,126.219558 47.5515552,117.994011 C41.0873129,115.08506 39.0392007,105.453247 39.1831908,104.333775 C39.2791841,103.587461 39.7179955,102.992308 40.4996249,102.548318 C45.8086889,99.2495638 55.5820967,90.1057595 59.1434078,86.3414523 C62.7047189,82.5771451 62.4561568,82.673004 62.6242539,75.2120941 C62.7363185,70.2381542 69.0697101,64.300262 81.6244285,57.3984176 C75.7597105,48.1450124 76.0146794,40.9602835 82.389335,35.844231 C83.2276483,43.9884432 85.3395027,48.439963 88.7248984,49.1987905 C82.0348979,32.0407088 93.2895792,21.0158123 122.488942,16.124101 C106.542747,12.8742815 90.5748342,12.9229931 74.5852032,16.2702356 C44.7351701,25.2376282 24.1547967,39.228119 12.844083,58.2417083 Z M51.3663306,98.9459195 C52.0253711,99.0055066 53.1170624,99.1709389 54.6414046,99.4422167 C56.9279179,99.8491333 57.3022399,102.886391 57.3678193,104.737845 C57.4333987,106.589299 56.2266729,109.817078 55.7848236,108.684365 C55.4902574,107.929223 54.3281169,107.689307 52.2984021,107.964617 C52.2610673,109.844632 52.4139777,111.46457 53.3794882,113.080476 C54.0231619,114.157746 54.0231619,115.010446 53.3794882,115.638573 C52.0274272,116.036642 52.6110406,118.91978 55.1303282,124.287988 C57.6496159,129.656196 65.0742641,131.864724 77.4042727,130.913571 C80.4378067,130.88109 82.0722054,128.504217 82.3074688,123.782954 C82.3561663,121.534104 81.0525865,119.2381 78.3967292,116.894941 C82.4295373,116.989474 85.5722622,118.728362 87.8249036,122.111605 C88.647135,118.66071 86.8914253,114.725279 82.5577743,110.305311 C86.9992092,111.037156 91.4052572,113.080476 95.7759184,116.43527 C104.708568,110.787272 109.408858,104.353554 109.876787,97.1341157 C105.475825,99.5413417 100.071261,100.145276 93.6630931,98.9459195 C113.136927,91.9006506 112.199012,78.0879987 112.073048,72.608905 C111.947083,67.1298114 109.262224,65.3546335 106.689044,64.8062537 C104.973591,64.4406672 102.312106,65.3497052 98.7045903,67.5333679 C98.922539,66.272408 99.7228024,64.6481017 101.105381,62.6604489 C94.4716892,61.7614914 88.1623236,62.8906206 82.1772839,66.0478366 C82.860565,64.0729525 84.5814289,61.3704796 87.3398758,57.9404178 C80.0956251,60.3174022 70.3963675,70.003093 68.3971699,72.0961431 C66.3979723,74.1891931 66.8391723,81.8557576 66.8294327,83.0418977 C66.8196932,84.2280378 66.684314,84.9592108 65.4486943,86.2095302 C64.6249478,87.0430764 59.9308266,91.2885395 51.3663306,98.9459195 Z M60.7505641,135.494433 C60.8820223,138.054563 61.105243,140.754297 61.4202263,143.593633 C61.7352096,146.432969 63.0545247,148.715687 65.3781718,150.441787 C65.667014,148.404886 73.4073405,145.377097 77.6857557,143.893118 C80.5380325,142.903798 82.1369383,139.834779 82.4824732,134.686059 C79.2450735,136.278606 72.0011038,136.548064 60.7505641,135.494433 Z" id="Combined-Shape" fill="#001489"></path>
                <path d="M72.6315789,86.0405682 C75.5463772,79.2536009 77.140911,74.8487738 77.4151805,72.826087 C77.8694462,74.7018908 77.9663503,76.2595591 77.705893,77.4990917 C80.9133769,76.7420796 85.8073659,75.2909735 92.38786,73.1457734 C88.3985656,78.8272415 86.2256761,81.9972992 85.8691916,82.6559463 C80.8545109,82.566886 77.8676922,82.5603505 76.9087357,82.6363397 C75.9497791,82.7123289 74.5240602,83.8470718 72.6315789,86.0405682 Z" id="Path-4" fill="#0C0298"></path>
            </g>
        </g>
    </g>
</svg>