<?xml version="1.0" encoding="UTF-8"?>
<svg width="322px" height="200px" viewBox="0 0 322 200" version="1.1" xmlns="http://www.w3.org/2000/svg" xmlns:xlink="http://www.w3.org/1999/xlink">
    <!-- Generator: Sketch 52.2 (67145) - http://www.bohemiancoding.com/sketch -->
    <title>Group 3</title>
    <desc>Created with Sketch.</desc>
    <g id="Page-1" stroke="none" stroke-width="1" fill="none" fill-rule="evenodd">
        <g id="Letter" transform="translate(-631.000000, -79.000000)">
            <g id="Group-3" transform="translate(631.000000, 79.000000)">
                <polygon id="Fill-43" fill="#172993" points="-8.52651283e-14 14.1455795 321.214343 14.1455795 321.214343 -4.88498131e-14 -8.52651283e-14 -4.88498131e-14"></polygon>
                <polygon id="Fill-44" fill="#172993" points="-8.52651283e-14 44.4486098 321.214343 44.4486098 321.214343 30.3030303 -8.52651283e-14 30.3030303"></polygon>
                <polygon id="Fill-45" fill="#172993" points="-8.52651283e-14 76.7697595 321.214343 76.7697595 321.214343 62.6262626 -8.52651283e-14 62.6262626"></polygon>
                <polygon id="Fill-46" fill="#172993" points="-8.52651283e-14 107.070707 321.214343 107.070707 321.214343 92.9292929 -8.52651283e-14 92.9292929"></polygon>
                <polygon id="Fill-47" fill="#172993" points="-8.52651283e-14 139.398105 321.214343 139.398105 321.214343 125.252525 -8.52651283e-14 125.252525"></polygon>
                <polygon id="Fill-48" fill="#172993" points="-8.52651283e-14 169.699052 321.214343 169.699052 321.214343 155.555556 -8.52651283e-14 155.555556"></polygon>
                <polygon id="Fill-49" fill="#172993" points="-8.52651283e-14 200 321.214343 200 321.214343 185.858586 -8.52651283e-14 185.858586"></polygon>
                <polygon id="Fill-50" fill="#172993" points="1.56319402e-13 107.368531 162.376179 107.368531 162.376179 -1.3500312e-13 1.56319402e-13 -1.3500312e-13"></polygon>
                <polyline id="Fill-51" fill="#F3F5FA" points="12.9970039 6.06060606 15.140625 10.4071644 19.9356765 11.1048631 16.464259 14.4913048 17.2842461 19.2710611 12.9970039 17.0134333 8.70559923 19.2710611 9.52558634 14.4913048 6.05625 11.1048631 10.8513015 10.4071644 12.9970039 6.06060606"></polyline>
                <polyline id="Fill-52" fill="#F3F5FA" points="39.2407539 6.06060606 41.384375 10.4071644 46.1835889 11.1048631 42.7121714 14.4913048 43.5321585 19.2710611 39.2407539 17.0134333 34.9535116 19.2710611 35.7693363 14.4913048 32.3 11.1048631 37.0971327 10.4071644 39.2407539 6.06060606"></polyline>
                <polyline id="Fill-53" fill="#F3F5FA" points="67.5032539 6.06060606 69.6489562 10.4071644 74.4440077 11.1048631 70.9746714 14.4913048 71.7925773 19.2710611 67.5032539 17.0134333 63.2139304 19.2710611 64.0318363 14.4913048 60.5625 11.1048631 65.3596327 10.4071644 67.5032539 6.06060606"></polyline>
                <polyline id="Fill-54" fill="#F3F5FA" points="93.7470039 6.06060606 95.890625 10.4071644 100.687758 11.1048631 97.2163402 14.4913048 98.0342461 19.2710611 93.7470039 17.0134333 89.4555992 19.2710611 90.2755863 14.4913048 86.80625 11.1048631 91.6013015 10.4071644 93.7470039 6.06060606"></polyline>
                <polyline id="Fill-55" fill="#F3F5FA" points="122.009504 6.06060606 124.153125 10.4071644 128.950258 11.1048631 125.480921 14.4913048 126.296746 19.2710611 122.009504 17.0134333 117.72018 19.2710611 118.540168 14.4913048 115.06875 11.1048631 119.863802 10.4071644 122.009504 6.06060606"></polyline>
                <polyline id="Fill-56" fill="#F3F5FA" points="148.253254 6.06060606 150.398956 10.4071644 155.194008 11.1048631 151.724671 14.4913048 152.542577 19.2710611 148.253254 17.0134333 143.96393 19.2710611 144.781836 14.4913048 141.3125 11.1048631 146.109633 10.4071644 148.253254 6.06060606"></polyline>
                <polyline id="Fill-57" fill="#F3F5FA" points="27.1261727 20.2020202 29.2697938 24.5527439 34.0669265 25.2483599 30.595509 28.6368843 31.4154961 33.4166406 27.1261727 31.1590128 22.8389304 33.4166406 23.6547552 28.6368843 20.1875 25.2483599 24.9825515 24.5527439 27.1261727 20.2020202"></polyline>
                <polyline id="Fill-58" fill="#F3F5FA" points="53.3699227 20.2020202 55.5135438 24.5527439 60.3106765 25.2483599 56.8413402 28.6368843 57.6613273 33.4166406 53.3699227 31.1590128 49.0826804 33.4166406 49.9005863 28.6368843 46.43125 25.2483599 51.2263015 24.5527439 53.3699227 20.2020202"></polyline>
                <polyline id="Fill-59" fill="#F3F5FA" points="81.6365851 20.2020202 83.778125 24.5527439 88.5773389 25.2483599 85.1059214 28.6368843 85.9238273 33.4166406 81.6365851 31.1590128 77.3451804 33.4166406 78.1630863 28.6368843 74.69375 25.2483599 79.4888015 24.5527439 81.6365851 20.2020202"></polyline>
                <polyline id="Fill-60" fill="#F3F5FA" points="107.880335 20.2020202 110.021875 24.5527439 114.819008 25.2483599 111.349671 28.6368843 112.167577 33.4166406 107.880335 31.1590128 103.58893 33.4166406 104.406836 28.6368843 100.9375 25.2483599 105.734633 24.5527439 107.880335 20.2020202"></polyline>
                <polyline id="Fill-61" fill="#F3F5FA" points="134.122004 20.2020202 136.265625 24.5527439 141.062758 25.2483599 137.59134 28.6368843 138.409246 33.4166406 134.122004 31.1590128 129.83268 33.4166406 130.650586 28.6368843 127.18125 25.2483599 131.976302 24.5527439 134.122004 20.2020202"></polyline>
                <polyline id="Fill-62" fill="#F3F5FA" points="12.9970039 86.8686869 15.140625 91.2173279 19.9356765 91.9150266 16.464259 95.2993856 17.2842461 100.079142 12.9970039 97.8235968 8.70559923 100.079142 9.52558634 95.2993856 6.05625 91.9150266 10.8513015 91.2173279 12.9970039 86.8686869"></polyline>
                <polyline id="Fill-63" fill="#F3F5FA" points="39.2407539 86.8686869 41.384375 91.2173279 46.1835889 91.9150266 42.7121714 95.2993856 43.5321585 100.079142 39.2407539 97.8235968 34.9535116 100.079142 35.7693363 95.2993856 32.3 91.9150266 37.0971327 91.2173279 39.2407539 86.8686869"></polyline>
                <polyline id="Fill-64" fill="#F3F5FA" points="67.5032539 86.8686869 69.6489562 91.2173279 74.4440077 91.9150266 70.9746714 95.2993856 71.7925773 100.079142 67.5032539 97.8235968 63.2139304 100.079142 64.0318363 95.2993856 60.5625 91.9150266 65.3596327 91.2173279 67.5032539 86.8686869"></polyline>
                <polyline id="Fill-65" fill="#F3F5FA" points="93.7470039 86.8686869 95.890625 91.2173279 100.687758 91.9150266 97.2163402 95.2993856 98.0342461 100.079142 93.7470039 97.8235968 89.4555992 100.079142 90.2755863 95.2993856 86.80625 91.9150266 91.6013015 91.2173279 93.7470039 86.8686869"></polyline>
                <polyline id="Fill-66" fill="#F3F5FA" points="122.009504 86.8686869 124.153125 91.2173279 128.950258 91.9150266 125.480921 95.2993856 126.296746 100.079142 122.009504 97.8235968 117.72018 100.079142 118.540168 95.2993856 115.06875 91.9150266 119.863802 91.2173279 122.009504 86.8686869"></polyline>
                <polyline id="Fill-67" fill="#F3F5FA" points="148.253254 86.8686869 150.398956 91.2173279 155.194008 91.9150266 151.724671 95.2993856 152.542577 100.079142 148.253254 97.8235968 143.96393 100.079142 144.781836 95.2993856 141.3125 91.9150266 146.109633 91.2173279 148.253254 86.8686869"></polyline>
                <polyline id="Fill-68" fill="#F3F5FA" points="12.9970039 34.3434343 15.140625 38.6941581 19.9356765 39.389774 16.464259 42.7762158 17.2842461 47.5538894 12.9970039 45.2983443 8.70559923 47.5538894 9.52558634 42.7762158 6.05625 39.389774 10.8513015 38.6941581 12.9970039 34.3434343"></polyline>
                <polyline id="Fill-69" fill="#F3F5FA" points="39.2407539 34.3434343 41.384375 38.6941581 46.1835889 39.389774 42.7121714 42.7762158 43.5321585 47.5538894 39.2407539 45.2983443 34.9535116 47.5538894 35.7693363 42.7762158 32.3 39.389774 37.0971327 38.6941581 39.2407539 34.3434343"></polyline>
                <polyline id="Fill-70" fill="#F3F5FA" points="67.5032539 34.3434343 69.6489562 38.6941581 74.4440077 39.389774 70.9746714 42.7762158 71.7925773 47.5538894 67.5032539 45.2983443 63.2139304 47.5538894 64.0318363 42.7762158 60.5625 39.389774 65.3596327 38.6941581 67.5032539 34.3434343"></polyline>
                <polyline id="Fill-71" fill="#F3F5FA" points="93.7470039 34.3434343 95.890625 38.6941581 100.687758 39.389774 97.2163402 42.7762158 98.0342461 47.5538894 93.7470039 45.2983443 89.4555992 47.5538894 90.2755863 42.7762158 86.80625 39.389774 91.6013015 38.6941581 93.7470039 34.3434343"></polyline>
                <polyline id="Fill-72" fill="#F3F5FA" points="122.009504 34.3434343 124.153125 38.6941581 128.950258 39.389774 125.480921 42.7762158 126.296746 47.5538894 122.009504 45.2983443 117.72018 47.5538894 118.540168 42.7762158 115.06875 39.389774 119.863802 38.6941581 122.009504 34.3434343"></polyline>
                <polyline id="Fill-73" fill="#F3F5FA" points="148.253254 34.3434343 150.398956 38.6941581 155.194008 39.389774 151.724671 42.7762158 152.542577 47.5538894 148.253254 45.2983443 143.96393 47.5538894 144.781836 42.7762158 141.3125 39.389774 146.109633 38.6941581 148.253254 34.3434343"></polyline>
                <polyline id="Fill-74" fill="#F3F5FA" points="27.1261727 46.4646465 29.2697938 50.8153702 34.0669265 51.5109862 30.595509 54.8953452 31.4154961 59.6751015 27.1261727 57.4195564 22.8389304 59.6751015 23.6547552 54.8953452 20.1875 51.5109862 24.9825515 50.8153702 27.1261727 46.4646465"></polyline>
                <polyline id="Fill-75" fill="#F3F5FA" points="53.3699227 46.4646465 55.5135438 50.8153702 60.3106765 51.5109862 56.8413402 54.8953452 57.6613273 59.6751015 53.3699227 57.4195564 49.0826804 59.6751015 49.9005863 54.8953452 46.43125 51.5109862 51.2263015 50.8153702 53.3699227 46.4646465"></polyline>
                <polyline id="Fill-76" fill="#F3F5FA" points="81.6365851 46.4646465 83.778125 50.8153702 88.5773389 51.5109862 85.1059214 54.8953452 85.9238273 59.6751015 81.6365851 57.4195564 77.3451804 59.6751015 78.1630863 54.8953452 74.69375 51.5109862 79.4888015 50.8153702 81.6365851 46.4646465"></polyline>
                <polyline id="Fill-77" fill="#F3F5FA" points="107.880335 46.4646465 110.021875 50.8153702 114.819008 51.5109862 111.349671 54.8953452 112.167577 59.6751015 107.880335 57.4195564 103.58893 59.6751015 104.406836 54.8953452 100.9375 51.5109862 105.734633 50.8153702 107.880335 46.4646465"></polyline>
                <polyline id="Fill-78" fill="#F3F5FA" points="134.122004 46.4646465 136.265625 50.8153702 141.062758 51.5109862 137.59134 54.8953452 138.409246 59.6751015 134.122004 57.4195564 129.83268 59.6751015 130.650586 54.8953452 127.18125 51.5109862 131.976302 50.8153702 134.122004 46.4646465"></polyline>
                <polyline id="Fill-79" fill="#F3F5FA" points="12.9970039 60.6060606 15.140625 64.9547017 19.9356765 65.6503176 16.464259 69.0367593 17.2842461 73.8165157 12.9970039 71.5588878 8.70559923 73.8165157 9.52558634 69.0367593 6.05625 65.6503176 10.8513015 64.9547017 12.9970039 60.6060606"></polyline>
                <polyline id="Fill-80" fill="#F3F5FA" points="39.2407539 60.6060606 41.384375 64.9547017 46.1835889 65.6503176 42.7121714 69.0367593 43.5321585 73.8165157 39.2407539 71.5588878 34.9535116 73.8165157 35.7693363 69.0367593 32.3 65.6503176 37.0971327 64.9547017 39.2407539 60.6060606"></polyline>
                <polyline id="Fill-81" fill="#F3F5FA" points="67.5032539 60.6060606 69.6489562 64.9547017 74.4440077 65.6503176 70.9746714 69.0367593 71.7925773 73.8165157 67.5032539 71.5588878 63.2139304 73.8165157 64.0318363 69.0367593 60.5625 65.6503176 65.3596327 64.9547017 67.5032539 60.6060606"></polyline>
                <polyline id="Fill-82" fill="#F3F5FA" points="93.7470039 60.6060606 95.890625 64.9547017 100.687758 65.6503176 97.2163402 69.0367593 98.0342461 73.8165157 93.7470039 71.5588878 89.4555992 73.8165157 90.2755863 69.0367593 86.80625 65.6503176 91.6013015 64.9547017 93.7470039 60.6060606"></polyline>
                <polyline id="Fill-83" fill="#F3F5FA" points="122.009504 60.6060606 124.153125 64.9547017 128.950258 65.6503176 125.480921 69.0367593 126.296746 73.8165157 122.009504 71.5588878 117.72018 73.8165157 118.540168 69.0367593 115.06875 65.6503176 119.863802 64.9547017 122.009504 60.6060606"></polyline>
                <polyline id="Fill-84" fill="#F3F5FA" points="148.253254 60.6060606 150.398956 64.9547017 155.194008 65.6503176 151.724671 69.0367593 152.542577 73.8165157 148.253254 71.5588878 143.96393 73.8165157 144.781836 69.0367593 141.3125 65.6503176 146.109633 64.9547017 148.253254 60.6060606"></polyline>
                <polyline id="Fill-85" fill="#F3F5FA" points="27.1261727 74.7474747 29.2697938 79.0961158 34.0669265 79.7938144 30.595509 83.1781735 31.4154961 87.9579298 27.1261727 85.7023847 22.8389304 87.9579298 23.6547552 83.1781735 20.1875 79.7938144 24.9825515 79.0961158 27.1261727 74.7474747"></polyline>
                <polyline id="Fill-86" fill="#F3F5FA" points="53.3699227 74.7474747 55.5135438 79.0961158 60.3106765 79.7938144 56.8413402 83.1781735 57.6613273 87.9579298 53.3699227 85.7023847 49.0826804 87.9579298 49.9005863 83.1781735 46.43125 79.7938144 51.2263015 79.0961158 53.3699227 74.7474747"></polyline>
                <polyline id="Fill-87" fill="#F3F5FA" points="81.6365851 74.7474747 83.778125 79.0961158 88.5773389 79.7938144 85.1059214 83.1781735 85.9238273 87.9579298 81.6365851 85.7023847 77.3451804 87.9579298 78.1630863 83.1781735 74.69375 79.7938144 79.4888015 79.0961158 81.6365851 74.7474747"></polyline>
                <polyline id="Fill-88" fill="#F3F5FA" points="107.880335 74.7474747 110.021875 79.0961158 114.819008 79.7938144 111.349671 83.1781735 112.167577 87.9579298 107.880335 85.7023847 103.58893 87.9579298 104.406836 83.1781735 100.9375 79.7938144 105.734633 79.0961158 107.880335 74.7474747"></polyline>
                <polyline id="Fill-89" fill="#F3F5FA" points="134.122004 74.7474747 136.265625 79.0961158 141.062758 79.7938144 137.59134 83.1781735 138.409246 87.9579298 134.122004 85.7023847 129.83268 87.9579298 130.650586 83.1781735 127.18125 79.7938144 131.976302 79.0961158 134.122004 74.7474747"></polyline>
            </g>
        </g>
    </g>
</svg>