<?xml version="1.0" encoding="UTF-8"?>
<svg width="412px" height="117px" viewBox="0 0 412 117" version="1.1" xmlns="http://www.w3.org/2000/svg" xmlns:xlink="http://www.w3.org/1999/xlink">
    <!-- Generator: Sketch 52.2 (67145) - http://www.bohemiancoding.com/sketch -->
    <title>Group 5</title>
    <desc>Created with Sketch.</desc>
    <g id="Page-1" stroke="none" stroke-width="1" fill="none" fill-rule="evenodd">
        <g id="Letter" transform="translate(-709.000000, -363.000000)">
            <g id="Group-5" transform="translate(709.000000, 363.000000)">
                <g id="Group-2">
                    <path d="M30.5442043,67.2465533 C30.5953548,68.0464753 30.8079089,68.9924194 31.1818667,70.0843858 C29.3461777,70.0643341 27.1911238,69.94264 24.7167049,69.7193036 C24.796481,71.2166368 24.9319437,72.7956189 25.123093,74.4562499 C25.3142423,76.1168809 26.1148758,77.4519648 27.5249936,78.4615016 C27.6792753,77.4129384 31.336757,75.9154046 33.9814744,74.9797529 C35.1381617,75.8292142 36.7943012,76.3383752 38.9498927,76.5072359 C38.8342313,76.7671368 38.720633,77.0297262 38.6091005,77.2950043 C37.7674821,76.9701129 36.6357911,76.862564 35.1141006,77.1363315 C30.7658668,77.9186226 28.4100682,80.1427812 28.046705,83.808807 C23.929906,80.7346616 21.8356578,75.9108814 21.7639605,69.3374665 C18.8764285,67.641936 17.1370427,64.3887497 16.5458031,59.5779075 C12.6229428,57.8765615 11.3800349,52.243242 11.467416,51.5885012 C11.5256701,51.1520073 11.7919652,50.803923 12.2663012,50.5442484 C15.4881353,48.6149192 21.4191805,43.2670197 23.5803814,41.0654046 C25.7415822,38.8637896 25.590741,38.9198542 25.6927516,34.5562222 C25.7607586,31.6471342 29.6042115,28.1742634 37.22311,24.1376098 C33.6640743,18.7256083 33.8188035,14.5235052 37.6872977,11.5313004 C38.1960326,16.2945726 39.4776229,18.8981149 41.5320685,19.3419272 C38.5188789,11.893919 41.5043067,6.42184548 50.488352,2.92570667 C65.0776229,0.81650452 73.7407595,1.98454127 76.4777617,6.42981692 C79.8781068,11.9524543 61.8478883,22.3342285 54.3127736,29.3575845 C53.7539609,28.8648518 53.0878869,28.6045636 52.4337072,28.4702007 C51.3926752,28.2563816 49.7775389,28.788047 47.5882984,30.0651969 C47.7205617,29.3277044 48.2062059,28.377703 49.0452309,27.2151926 C45.0195395,26.689423 41.190667,27.3498122 37.5586133,29.1963602 C37.9732661,28.0413178 39.0175817,26.4607335 40.6915601,24.4546072 C36.2953475,25.8448244 30.4093007,31.5096549 29.1960768,32.7338086 C27.982853,33.9579623 28.2505976,38.4418746 28.2446871,39.1356075 C28.2387766,39.8293405 28.156621,40.2569787 27.4067785,40.9882479 C26.9068835,41.4757607 24.0582307,43.9587874 18.8608202,48.4373281 C19.2607624,48.4721785 19.9232612,48.5689342 20.8483165,48.7275954 C22.2358994,48.965587 22.4630587,50.7419757 22.5028559,51.8248279 C22.5426531,52.9076802 21.8103451,54.7954985 21.5422064,54.133013 C21.3634474,53.691356 20.6581961,53.5510372 19.4264528,53.7120566 C19.403796,54.8116135 19.4965904,55.7590601 20.0825157,56.7041484 C20.4731325,57.3342073 20.4731325,57.832922 20.0825157,58.2002925 C19.2620102,58.4331091 19.6161791,60.1193583 21.1450224,63.2590403 C22.3692643,65.773183 25.502325,67.102354 30.5442043,67.2465533 Z" id="Lion-2" fill="#999999"></path>
                    <path d="M31.2052632,42.0656564 C32.9741242,38.0961904 33.9417757,35.5199571 34.1082176,34.3369565 C34.3838911,35.4340503 34.4426979,36.3450774 34.284638,37.0700378 C36.2311169,36.6272872 39.2010605,35.7785847 43.1944688,34.5239302 C40.773544,37.8468274 39.4549144,39.7008861 39.2385798,40.0861063 C36.1953938,40.034018 34.3828268,40.0301956 33.8008788,40.0746391 C33.2189308,40.1190826 32.3537256,40.782755 31.2052632,42.0656564 Z" id="Mask" fill="#999999"></path>
                    <path d="M0,31.2963085 C7.72574141,19.784018 18.5173867,11.1775544 32.374936,5.4769178 C46.2324852,-0.223718793 61.0173757,-1.47423507 76.7296076,1.72536897 C91.1680594,5.4910568 103.456909,12.5726027 113.596156,22.9700067 C101.143287,24.8567781 92.9283782,27.8783354 88.9514298,32.0346787 C99.8723982,27.8233504 110.462173,28.0694738 120.720755,32.7730488 C120.463686,41.0019486 119.750043,46.9479231 118.579827,50.6109723 C110.001394,46.0985356 101.866655,44.1693472 94.1756102,44.823407 C103.514736,46.8819411 111.179759,51.4297253 117.170678,58.4667595 C114.318736,67.1795274 111.727279,73.9432076 109.396309,78.7578 C104.395816,71.3955687 98.4177761,66.5553166 91.4621906,64.2370438 C98.1864665,69.0013641 102.85235,76.1913091 105.45984,85.8068785 C98.9600395,94.0823847 94.057064,99.5392544 90.7509135,102.177488 C89.2116531,91.9408494 86.194114,84.1534006 81.698296,78.8151415 C85.1674147,86.8110096 85.6408108,96.3475053 83.1184845,107.424629 C77.2905334,111.045785 70.0345083,114.041682 61.350409,116.412322 C60.6007556,116.68777 59.0607066,116.555021 56.7302622,116.014073 C53.2345955,115.202651 33.554615,109.150373 20.8391571,93.3578917 C8.1236991,77.5654107 2.77413837,62.1648943 1.45488496,50.6109723 C0.575382687,42.9083576 0.0904210345,36.4701363 0,31.2963085 Z M7.77067024,34.0713993 C7.72914985,39.1939273 8.5423452,45.9675386 10.2102563,54.3922332 C12.712123,67.029275 20.1641143,79.7902363 25.6911229,87.5767716 C29.3757953,92.7677952 34.9831511,97.3715738 42.5131903,101.388107 C43.4637577,99.974994 45.6045546,99.1544196 49.3963785,96.4093678 C51.9242611,94.5793333 53.1727636,92.8591009 53.1418861,91.2486705 C53.1418861,91.2486705 53.7826273,85.4152395 47.2802179,86.5889452 C42.9452783,87.3714156 40.5966823,89.596084 40.23443,93.2629503 C36.1302177,90.1881002 34.0423725,85.3632142 33.9708943,78.7882924 C31.0921906,77.0923733 29.3581228,73.8384412 28.7686909,69.0264962 C24.8578243,67.3247602 23.6187164,61.6901493 23.7058304,61.0352584 C23.7639064,60.5986644 24.0293873,60.2505004 24.5022731,59.9907662 C27.7142568,58.0609948 33.6271685,52.7118693 35.7817617,50.5097496 C37.9363549,48.3076299 37.7859749,48.3637074 37.8876736,43.9990751 C37.9554727,41.0893202 41.7871746,37.6156533 49.3827792,33.5780743 C45.8346249,28.1648323 45.988881,23.9617659 49.8455477,20.9688752 C50.3527272,25.7332393 51.6303992,28.3373784 53.6785635,28.7812925 C49.6311132,18.7438146 56.4401954,12.2942502 74.1058101,9.4325991 C64.4583621,7.53145468 54.7977747,7.55995094 45.124048,9.51808785 C27.0647779,14.7640125 14.613652,22.9484496 7.77067024,34.0713993 Z M31.07663,57.8833629 C31.4753495,57.9182213 32.1358228,58.0149993 33.0580498,58.1736968 C34.4413903,58.411743 34.6678551,60.1885389 34.7075307,61.2716393 C34.7472062,62.3547398 34.0171371,64.2429909 33.7498183,63.5803535 C33.5716057,63.1385953 32.8685107,62.9982443 31.6405333,63.1593007 C31.6179457,64.2591096 31.7104565,65.2067734 32.2945904,66.1520783 C32.6840129,66.7822816 32.6840129,67.2811106 32.2945904,67.6485654 C31.4765935,67.8814353 31.8296795,69.5680711 33.3538486,72.7084728 C34.8780176,75.8488744 39.3699298,77.1408633 46.829585,76.5844392 C48.664873,76.5654375 49.6536843,75.1749671 49.7960186,72.4130281 C49.8254806,71.0974509 49.0368148,69.7542884 47.4300211,68.3835405 C49.8698701,68.4388422 51.7712186,69.4560917 53.1340667,71.4352891 C53.6315167,69.4165156 52.5693123,67.1142883 49.9474534,64.528607 C52.6345216,64.9567364 55.3001806,66.1520783 57.9444306,68.1146328 C63.3486836,64.8105539 66.1923588,61.0468288 66.4754562,56.8234577 C63.8128743,58.2316849 60.5431126,58.5849866 56.6661713,57.8833629 C68.4478409,53.7618806 67.8804022,45.6814792 67.8041938,42.4762094 C67.7279853,39.2709397 66.1036454,38.2324606 64.5468717,37.9116584 C63.5090225,37.6977903 61.8988244,38.2295776 59.7162771,39.5070202 C59.8481361,38.7693587 60.3322955,37.8191395 61.1687552,36.6563626 C57.155372,36.1304725 53.3382058,36.7910131 49.7172568,38.6379844 C50.1306418,37.4826772 51.1717645,35.9017306 52.8406248,33.8951444 C48.4578532,35.2856803 42.5898023,40.9518094 41.3802878,42.1762437 C40.1707732,43.400678 40.4376992,47.8856182 40.4318068,48.5795101 C40.4259144,49.2734021 40.34401,49.7011383 39.59646,50.4325752 C39.0980934,50.9201997 36.2581501,53.4037956 31.07663,57.8833629 Z M36.7540913,79.2642432 C36.8336235,80.7619196 36.968672,82.3412637 37.1592369,84.0022753 C37.3498018,85.663287 38.1479875,86.9986769 39.5537939,88.0084451 C39.7285435,86.8168583 44.411441,85.045602 46.9998822,84.177474 C48.7255096,83.598722 49.6928477,81.8033455 49.9018963,78.7913444 C47.9432695,79.7229844 43.5606678,79.8806173 36.7540913,79.2642432 Z" id="Combined-Shape" fill="#001489"></path>
                    <path d="M43.9421053,50.3337324 C45.7055582,46.3633565 46.6702512,43.7865327 46.8361842,42.6032609 C47.1110149,43.7006061 47.1696419,44.6118421 47.0120653,45.3369687 C48.952593,44.8941166 51.9134563,44.0452195 55.8946553,42.7902774 C53.4811322,46.1139363 52.1665341,47.96842 51.9508609,48.3537286 C48.9169791,48.3016283 47.1099538,48.297805 46.5297851,48.3422587 C45.9496164,48.3867124 45.0870564,49.050537 43.9421053,50.3337324 Z" id="Path-4" fill="#0C0298"></path>
                </g>
                <text id="Two-Lions" fill="#222222" font-family="Cinzel-Bold, Cinzel" font-size="48" font-weight="bold">
                    <tspan x="141.44" y="68">Two Lions</tspan>
                </text>
                <text id="CONTRACTORS,-INC." fill="#001489" font-family="Quattrocento-Bold, Quattrocento" font-size="26" font-weight="bold" letter-spacing="1.08333337">
                    <tspan x="141" y="99">CONTRACTORS, INC.</tspan>
                </text>
            </g>
        </g>
    </g>
</svg>