<?xml version="1.0" encoding="UTF-8"?>
<svg width="200px" height="200px" viewBox="0 0 200 200" version="1.1" xmlns="http://www.w3.org/2000/svg" xmlns:xlink="http://www.w3.org/1999/xlink">
    <!-- Generator: Sketch 52.2 (67145) - http://www.bohemiancoding.com/sketch -->
    <title>Group 4</title>
    <desc>Created with Sketch.</desc>
    <g id="Page-1" stroke="none" stroke-width="1" fill="none" fill-rule="evenodd">
        <g id="Letter" transform="translate(-650.000000, -548.000000)">
            <g id="Group-4" transform="translate(650.000000, 548.000000)">
                <path d="M70.9743027,39.7594485 C56.6761364,44.8342348 48.796918,49.8272236 47.3366477,54.7384148 C45.1462423,62.1052017 46.9605501,67.195012 41.8323864,71.5887086 C38.4136105,74.5178397 32.7339446,80.0116297 24.7933884,88.0700788 L29.9425362,101.124299 L38.1892433,117.62904 C40.5211562,129.323306 42.6287018,136.0346 44.5118802,137.762921 C51.9283747,132.796085 55.6366219,130.312667 55.6366219,130.312667 C58.635718,131.919683 60.135266,132.72319 60.135266,132.72319 C59.8199681,138.345519 59.6623192,141.156684 59.6623192,141.156684 C61.6434229,147.901921 62.6339747,151.274539 62.6339747,151.274539 C64.4149234,152.843717 65.3053977,153.628305 65.3053977,153.628305 C71.6102789,148.933015 74.7627195,146.58537 74.7627195,146.58537 C80.9987302,145.629396 84.1167355,145.151409 84.1167355,145.151409 C103.005553,125.562289 112.449961,115.767728 112.449961,115.767728 C117.084732,98.1361846 119.663611,88.7283543 120.186596,87.5442374 C120.709582,86.3601206 120.709582,77.5994369 120.186596,61.2621862 L98.9661351,39.3162393 L70.9743027,39.7594485 Z" id="Path-9" fill="#FFFFFF"></path>
                <path d="M51.3736304,115.109307 C51.4581767,116.476695 51.8095058,118.093694 52.4276179,119.960303 C49.3934212,119.926026 45.8313486,119.718002 41.7414,119.336231 C41.8732614,121.895775 42.0971667,124.594889 42.4131159,127.433575 C42.7290652,130.27226 44.0524264,132.554455 46.3831995,134.280159 C46.6382106,132.487743 52.683635,129.927856 57.0550686,128.328452 C58.9669485,129.780522 61.7043691,130.650883 65.2673303,130.939534 C65.0761543,131.383809 64.8883886,131.83268 64.7040374,132.286146 C63.3129326,131.730776 61.4423689,131.546932 58.9271781,132.014911 C51.7400147,133.352161 47.8461328,137.154141 47.2455324,143.420852 C40.440906,138.165902 36.9793387,129.920124 36.8608307,118.683518 C32.0880506,115.785175 29.2130327,110.224173 28.2357772,102.000511 C21.7517106,99.0922271 19.6973173,89.462621 19.841749,88.3434059 C19.9380367,87.5972625 20.3781939,87.0022467 21.1622203,86.5583584 C26.4875659,83.2603599 36.2909465,74.1186512 39.8631793,70.3552067 C43.4354121,66.5917622 43.1860878,66.6875992 43.3547003,59.2283992 C43.4671087,54.2555992 49.8199232,48.3190679 62.413144,41.4188053 C56.5304403,32.1675207 56.7861911,24.9844385 63.1803964,19.8695585 C64.0212805,28.0119041 66.1396116,32.4624038 69.5353894,33.2210573 C64.5549108,20.4894193 69.4895022,11.1354475 84.3391638,5.15914183 C108.453661,1.55366808 122.772895,3.55031209 127.296866,11.1490739 C132.917271,20.5894796 103.115257,38.3361022 90.6605219,50.341839 C89.7368645,49.4995609 88.6359156,49.0546238 87.5546269,48.8249436 C85.8339129,48.4594408 83.1642662,49.3682706 79.5456867,51.5514327 C79.7643038,50.2907618 80.5670214,48.6668278 81.9538396,46.6796306 C75.2998043,45.7808791 68.9710894,46.9097495 62.967695,50.0662419 C63.6530715,48.0918105 65.3792129,45.3899569 68.1461193,41.9606812 C60.8796522,44.3371209 51.1506492,54.0205919 49.1453205,56.1131622 C47.1399918,58.2057326 47.5825449,65.87054 47.5727755,67.0564083 C47.5630061,68.2422766 47.4272117,68.973282 46.1878026,70.2233148 C45.3615299,71.05667 40.6530129,75.3011602 32.0622517,82.9567852 C32.7233133,83.0163586 33.8183526,83.1817531 35.3473696,83.4529686 C37.6408951,83.859792 38.016365,86.8963538 38.0821455,88.7473833 C38.147926,90.5984128 36.9374995,93.8254526 36.4942951,92.6929988 C36.1988256,91.9380296 35.0331211,91.6981684 32.9971816,91.9734153 C32.9597323,93.8529997 33.1131117,95.4725665 34.0815832,97.0881021 C34.7272308,98.1651258 34.7272308,99.0176295 34.0815832,99.6456134 C32.7253757,100.04359 33.3107788,102.926068 35.8377926,108.293045 C37.861333,112.590725 43.0399456,114.862812 51.3736304,115.109307 Z" id="Lion-2" fill="#4D4D4D"></path>
                <path d="M51.2396694,73.0405126 C54.1634067,66.2551007 55.7628306,61.8512831 56.0379412,59.8290598 C56.4936,61.7044338 56.5908013,63.2617451 56.3295452,64.5009936 C59.5468657,63.744155 64.4558634,62.2933814 71.0565383,60.148673 C67.0550097,65.8288391 64.8754565,68.9981702 64.5178787,69.6566663 C59.4878192,69.5676265 56.4918407,69.5610925 55.5299432,69.6370643 C54.5680457,69.7130361 53.1379545,70.8475188 51.2396694,73.0405126 Z" id="Mask" fill="#666666"></path>
                <path d="M-2.13162821e-14,53.4979632 C12.7698205,33.8188341 30.6072508,19.1069306 53.5122909,9.36225265 C76.4173309,-0.382425287 100.855167,-2.52005995 126.825798,2.94934867 C150.691007,9.38642188 171.003155,21.4916285 187.762241,39.2649686 C167.178987,42.4902189 153.600625,47.6552742 147.027157,54.7601345 C165.078344,47.5612827 182.582105,47.9820065 199.538438,56.0223057 C199.113531,70.0888011 197.933956,80.25286 195.999714,86.5144825 C181.820486,78.8009155 168.374637,75.5031575 155.662166,76.6212085 C171.098738,80.1400702 183.768196,87.9140603 193.670542,99.9431786 C188.956588,114.836799 184.673189,126.398645 180.820346,134.628718 C172.555067,122.043707 162.67401,113.769772 151.177175,109.806912 C162.29168,117.95105 170.003884,130.241554 174.313785,146.678425 C163.570313,160.824589 155.466222,170.152572 150.00151,174.662372 C147.457278,157.163845 142.46961,143.851967 135.038506,134.726738 C140.772586,148.394888 141.555059,164.69659 137.385925,183.631844 C127.752948,189.821854 115.759518,194.943047 101.405635,198.995422 C100.166538,199.466274 97.6210027,199.239352 93.7690284,198.314655 C87.9910669,196.927609 55.4621736,186.581834 34.4448877,159.58614 C13.4276018,132.590446 4.58535267,106.264777 2.40476853,86.5144825 C0.951045764,73.3476197 0.149456255,62.3421133 -2.13162821e-14,53.4979632 Z M12.844083,58.2417083 C12.7754543,66.9981664 14.1195788,78.5769891 16.8764567,92.9781763 C21.0117735,114.579957 33.3291146,136.393566 42.4646659,149.703883 C48.5550335,158.577428 57.8233902,166.447135 70.269736,173.313004 C71.8409218,170.897426 75.379429,169.494734 81.6469066,164.802338 C85.8252249,161.674074 87.8888655,158.733506 87.8378283,155.980633 C87.8378283,155.980633 88.8969046,146.008956 78.1491205,148.015291 C70.9839311,149.352847 67.1019543,153.155699 66.5031901,159.423847 C59.7193681,154.167693 56.2683842,145.920024 56.1502385,134.680842 C51.3920506,131.781835 48.5258228,126.219558 47.5515552,117.994011 C41.0873129,115.08506 39.0392007,105.453247 39.1831908,104.333775 C39.2791841,103.587461 39.7179955,102.992308 40.4996249,102.548318 C45.8086889,99.2495638 55.5820967,90.1057595 59.1434078,86.3414523 C62.7047189,82.5771451 62.4561568,82.673004 62.6242539,75.2120941 C62.7363185,70.2381542 69.0697101,64.300262 81.6244285,57.3984176 C75.7597105,48.1450124 76.0146794,40.9602835 82.389335,35.844231 C83.2276483,43.9884432 85.3395027,48.439963 88.7248984,49.1987905 C82.0348979,32.0407088 93.2895792,21.0158123 122.488942,16.124101 C106.542747,12.8742815 90.5748342,12.9229931 74.5852032,16.2702356 C44.7351701,25.2376282 24.1547967,39.228119 12.844083,58.2417083 Z M51.3663306,98.9459195 C52.0253711,99.0055066 53.1170624,99.1709389 54.6414046,99.4422167 C56.9279179,99.8491333 57.3022399,102.886391 57.3678193,104.737845 C57.4333987,106.589299 56.2266729,109.817078 55.7848236,108.684365 C55.4902574,107.929223 54.3281169,107.689307 52.2984021,107.964617 C52.2610673,109.844632 52.4139777,111.46457 53.3794882,113.080476 C54.0231619,114.157746 54.0231619,115.010446 53.3794882,115.638573 C52.0274272,116.036642 52.6110406,118.91978 55.1303282,124.287988 C57.6496159,129.656196 65.0742641,131.864724 77.4042727,130.913571 C80.4378067,130.88109 82.0722054,128.504217 82.3074688,123.782954 C82.3561663,121.534104 81.0525865,119.2381 78.3967292,116.894941 C82.4295373,116.989474 85.5722622,118.728362 87.8249036,122.111605 C88.647135,118.66071 86.8914253,114.725279 82.5577743,110.305311 C86.9992092,111.037156 91.4052572,113.080476 95.7759184,116.43527 C104.708568,110.787272 109.408858,104.353554 109.876787,97.1341157 C105.475825,99.5413417 100.071261,100.145276 93.6630931,98.9459195 C113.136927,91.9006506 112.199012,78.0879987 112.073048,72.608905 C111.947083,67.1298114 109.262224,65.3546335 106.689044,64.8062537 C104.973591,64.4406672 102.312106,65.3497052 98.7045903,67.5333679 C98.922539,66.272408 99.7228024,64.6481017 101.105381,62.6604489 C94.4716892,61.7614914 88.1623236,62.8906206 82.1772839,66.0478366 C82.860565,64.0729525 84.5814289,61.3704796 87.3398758,57.9404178 C80.0956251,60.3174022 70.3963675,70.003093 68.3971699,72.0961431 C66.3979723,74.1891931 66.8391723,81.8557576 66.8294327,83.0418977 C66.8196932,84.2280378 66.684314,84.9592108 65.4486943,86.2095302 C64.6249478,87.0430764 59.9308266,91.2885395 51.3663306,98.9459195 Z M60.7505641,135.494433 C60.8820223,138.054563 61.105243,140.754297 61.4202263,143.593633 C61.7352096,146.432969 63.0545247,148.715687 65.3781718,150.441787 C65.667014,148.404886 73.4073405,145.377097 77.6857557,143.893118 C80.5380325,142.903798 82.1369383,139.834779 82.4824732,134.686059 C79.2450735,136.278606 72.0011038,136.548064 60.7505641,135.494433 Z" id="Combined-Shape" fill="#666666"></path>
                <path d="M72.7272727,86.7187548 C75.642071,79.9317874 77.2366048,75.5269604 77.5108743,73.5042735 C77.9651399,75.3800774 78.0620441,76.9377457 77.8015868,78.1772783 C81.0090706,77.4202661 85.9030596,75.96916 92.4835537,73.8239599 C88.4942594,79.5054281 86.3213699,82.6754857 85.9648854,83.3341328 C80.9502047,83.2450726 77.963386,83.238537 77.0044295,83.3145263 C76.0454729,83.3905155 74.619754,84.5252583 72.7272727,86.7187548 Z" id="Path-4" fill="#666666"></path>
            </g>
        </g>
    </g>
</svg>