<?xml version="1.0" encoding="UTF-8"?>
<svg width="362px" height="350px" viewBox="0 0 362 350" version="1.1" xmlns="http://www.w3.org/2000/svg" xmlns:xlink="http://www.w3.org/1999/xlink">
    <!-- Generator: Sketch 52.5 (67469) - http://www.bohemiancoding.com/sketch -->
    <title>Group</title>
    <desc>Created with Sketch.</desc>
    <g id="Page-1" stroke="none" stroke-width="1" fill="none" fill-rule="evenodd">
        <g id="Group" fill="#001489">
            <path d="M181,0.000923507021 L181,349.999624 C178.444109,350.016303 174.81562,349.478247 170.114533,348.385455 C159.632232,345.948789 100.618743,327.774047 62.4894605,280.349881 C24.3601779,232.925715 8.31868627,186.678602 4.36269931,151.982653 C1.72537467,128.85202 0.271141565,109.518308 0,93.9815177 C23.1668398,59.4105862 55.5272703,33.5657327 97.0812915,16.4469572 C123.896234,5.40015696 151.869136,-0.0818542818 181,0.000923507021 Z" id="Combined-Shape"></path>
            <path d="M362,0.000923507021 L362,349.999624 C359.444109,350.016303 355.81562,349.478247 351.114533,348.385455 C340.632232,345.948789 281.618743,327.774047 243.489461,280.349881 C205.360178,232.925715 189.318686,186.678602 185.362699,151.982653 C182.725375,128.85202 181.271142,109.518308 181,93.9815177 C204.16684,59.4105862 236.52727,33.5657327 278.081292,16.4469572 C304.896234,5.40015696 332.869136,-0.0818542818 362,0.000923507021 Z" id="Combined-Shape" transform="translate(271.500000, 175.000000) scale(-1, 1) translate(-271.500000, -175.000000) "></path>
        </g>
    </g>
</svg>